# xmcd CD database file
#
# Track frame offsets:
#	187
#	15162
#	30717
#	46272
#	62715
#	79080
#	94792
#	109030
#	125455
#	140995
#
# Disc length: 2074 seconds
#
# Revision: 0
# Processed by: cddbd v1.5PL3 Copyright (c) Steve Scherf et al.
# Submitted via: CDex 1.51
#
DISCID=7d08180a
DTITLE=岩崎宏美 - CD FILE VOL.2
DYEAR=1900
DGENRE=Pop
TTITLE0=霧のめぐり逢い
TTITLE1=感傷時代
TTITLE2=ドリーム
TTITLE3=スイート・スポット
TTITLE4=想い出の樹の下で
TTITLE5=わたしの1095日
TTITLE6=悲恋白書
TTITLE7=愛をどうぞ
TTITLE8=熱帯魚
TTITLE9=夏のたまり場
EXTD=
EXTT0=
EXTT1=
EXTT2=
EXTT3=
EXTT4=
EXTT5=
EXTT6=
EXTT7=
EXTT8=
EXTT9=
PLAYORDER=
